/* XPM */
static char *dummy[]={
"64 64 174 2",
"#9 c #22825f",
"av c #22835f",
"#y c #228360",
"am c #22845e",
"#Y c #22845f",
"#R c #228460",
".0 c #228461",
"ac c #22855f",
"aJ c #228561",
"aH c #228562",
"aK c #228660",
"aN c #228661",
"af c #238260",
"#Z c #23835f",
"#P c #238360",
"#8 c #238361",
"#3 c #23845f",
"#L c #238460",
".9 c #238461",
"#z c #238462",
"#2 c #238463",
"#X c #23855f",
"#6 c #238560",
".Z c #238561",
".Y c #238562",
"aF c #238660",
"#x c #238661",
"#j c #238662",
"#n c #238763",
"#q c #248361",
"#r c #248362",
"#M c #248460",
"#a c #248461",
"#f c #248462",
"#W c #248463",
"#O c #24855f",
"#N c #248560",
"#F c #248561",
".W c #248562",
"#p c #248563",
"aG c #248660",
".X c #248662",
".8 c #248663",
"aC c #248763",
"ab c #248764",
".V c #248864",
"#T c #258463",
"#1 c #258562",
"#S c #258563",
"#k c #258662",
"a# c #258663",
"aa c #258664",
".1 c #50a997",
"ah c #50a998",
"#. c #50aa97",
"ai c #50aa98",
"#u c #51a896",
"#t c #51a996",
".O c #51a998",
"ap c #51a999",
"#s c #51aa96",
"#b c #51aa97",
".n c #51aa98",
".z c #51aa99",
"ag c #51ab98",
"#v c #52a997",
".J c #52a998",
"ao c #52a999",
".m c #52aa98",
".v c #52aa99",
"an c #52aa9a",
"aE c #52ab98",
".s c #52ab99",
"al c #52ab9a",
"aD c #52ac99",
".I c #53a998",
".l c #53aa98",
".E c #53aa99",
"au c #53aa9a",
".B c #53ab99",
"#5 c #53ab9a",
"ax c #53ac99",
".F c #53ac9a",
".N c #54aa99",
".y c #54ab99",
"#H c #54ab9a",
"#V c #54ab9b",
"#J c #54ac9a",
"#I c #54ac9b",
"ae c #54ad9a",
"#U c #54ad9b",
"ar c #55ab9b",
"#7 c #55ac9a",
"#K c #55ac9b",
"ak c #55ad9a",
"aw c #55ad9b",
"aq c #56ac9b",
"ad c #56ad9b",
"az c #57ac9b",
"#i c #5cc6be",
"at c #5cc7c0",
"#m c #5dc6be",
"#4 c #5dc6bf",
"#A c #5dc6c0",
"aj c #5dc7bd",
".P c #5dc7be",
".7 c #5dc7bf",
"#C c #5dc7c0",
"#Q c #5dc8c0",
"#E c #5dc8c1",
"#D c #5ec6be",
"#h c #5ec6bf",
"#o c #5ec6c0",
"aI c #5ec7bd",
".C c #5ec7be",
".h c #5ec7bf",
".i c #5ec7c0",
"aA c #5ec7c1",
".G c #5ec8be",
"#e c #5ec8bf",
".D c #5ec8c0",
".K c #5ec8c1",
"as c #5fc6be",
".b c #5fc6bf",
".a c #5fc6c0",
".u c #5fc7be",
".j c #5fc7bf",
"Qt c #5fc7c0",
"#d c #5fc7c1",
"#c c #5fc8be",
"## c #5fc8bf",
".# c #5fc8c0",
".q c #5fc8c1",
"#g c #60c6bf",
"#l c #60c7be",
".w c #60c7bf",
".f c #60c7c0",
"aB c #60c7c1",
".4 c #60c8bf",
".r c #60c8c0",
".g c #60c8c1",
".2 c #60c9bf",
".U c #60c9c0",
".T c #60c9c1",
".6 c #60c9c2",
".Q c #61c7c0",
".x c #61c8c0",
".3 c #61c8c1",
".R c #61c9c1",
".S c #61c9c2",
"aQ c #73cdc8",
"aO c #73cec7",
"aM c #73cec8",
"aP c #ade2de",
"aL c #eff2f1",
"#B c #f0f1f1",
".p c #f0f2f1",
"#0 c #f0f2f2",
".L c #f0f3f1",
".A c #f0f3f2",
"#G c #f0f4f2",
".k c #f1f1f1",
".t c #f1f2f1",
".o c #f1f2f2",
".c c #f1f3f2",
"#w c #f1f3f3",
".5 c #f1f4f3",
"aR c #f2f2f1",
".e c #f2f2f2",
".d c #f2f3f2",
".H c #f2f3f3",
"a. c #f2f4f3",
"ay c #f3f4f3",
".M c #f3f4f4",
"Qt.#QtQtQtQt.a.b.c.c.d.e.e.e.e.e.f.gQtQtQt.h.i.j.c.d.e.e.e.k.e.e.l.m.m.n.n.m.n.n.j.f.j.jQt.h.h.b.o.e.e.k.k.k.o.pQt.qQtQtQt.j.j.j",
"Qt.g.g.rQt.rQt.j.c.c.c.d.e.e.e.o.f.g.gQtQt.i.i.f.c.c.e.e.e.e.e.e.l.s.s.n.m.s.s.n.j.r.g.gQtQt.i.j.c.e.e.e.k.k.k.tQt.g.g.gQt.j.j.u",
"Qt.g.r.g.r.qQtQt.c.c.d.c.d.c.d.c.r.rQtQt.q.#.i.f.c.d.d.e.e.e.d.d.l.v.s.s.n.s.s.s.jQtQt.g.r.q.i.j.c.d.e.e.e.e.e.o.w.r.g.g.rQtQt.j",
"Qt.r.g.gQtQt.q.r.c.d.c.c.c.c.c.c.x.g.q.#.q.i.iQt.c.c.c.d.d.c.c.c.y.s.s.s.v.m.m.z.hQt.q.#.qQtQtQt.c.c.d.d.d.d.d.A.f.g.gQtQtQtQtQt",
"Qt.#.gQt.g.q.i.r.c.c.c.c.c.c.c.c.x.g.q.iQt.i.iQt.c.c.c.c.c.c.c.c.B.s.s.s.z.n.m.n.C.D.D.iQtQt.q.#.c.c.c.d.d.e.c.A.r.g.gQtQtQtQtQt",
"Qt.gQt.q.qQt.i.r.o.e.d.c.c.c.c.c.x.rQt.iQtQtQtQt.c.c.c.c.c.c.c.c.E.F.s.s.s.n.s.n.G.i.i.iQt.i.i.r.c.c.c.d.e.d.d.A.r.fQtQt.jQtQt.j",
".jQt.i.qQtQtQt.#.c.e.e.d.c.c.d.e.r.gQt.bQtQt.jQt.c.c.d.d.c.d.c.H.I.s.v.m.m.n.J.v.GQtQtQtQt.i.i.r.c.c.d.e.e.e.e.o.fQt.g.j.aQt.h.j",
".jQtQtQt.f.#Qt.K.L.c.o.e.c.c.e.H.#.rQtQt.jQtQt.K.c.e.d.d.d.c.c.M.N.O.O.m.J.J.n.J.PQt.i.i.i.iQtQt.c.c.e.e.d.e.e.o.j.r.Q.jQt.j.j.j",
".A.A.c.c.c.o.c.p.R.S.R.T.g.g.g.D.c.o.c.c.A.c.o.o.U.T.g.r.r.#.#.r.V.W.X.X.W.Y.Z.0.1.n.n.n.n.m.m.n.2.x.3.x.x.3.r.4.5.A.o.o.c.c.o.t",
".c.c.c.c.c.c.d.c.3.6.q.q.q.#.i.#.c.d.c.c.c.c.c.c.r.#Qt.i.i.qQt.7.W.8.W.W.W.Y.9.9#..n.n.n.O.n.n.n.G.#.###.r##.#.4.c.c.c.c.c.d.e.e",
".d.c.c.c.H.d.c.c.3.g.g.q.q.D.iQt.c.d.c.c.c.d.c.c.Q.gQt.i.iQt.i.7.X.W.W.W.W.W#a.9#b.n.n.v.n.n.n.z.G#c#c.jQt.u.u.w.c.d.d.c.c.d.e.e",
".d.c.d.c.c.e.c.c.3.r.g#d.qQtQt.j.c.d.d.e.d.c.d.o.f.q.q.iQtQt.i#e.X.W.W.W#f#a#f.W.1.n.J.v.n.n.J.v.G.GQtQtQtQt.j#g.d.d.d.d.d.e.e.e",
".c.c.c.c.c.c.d.c.xQtQt#d.qQtQtQt.c.d.e.d.c.c.c.o.f.gQtQt.iQt.i.7.W.W.W.W#a#a.W.W.1.O.v.s.n.m.m.m.CQt.j#h.j#h.j.w.c.d.d.d.e.e.e.e",
".c.c.c.c.c.c.c.c.x.gQt.q.i.iQtQt.c.d.d.c.c.c.c.c.r.q.i.i.iQt.i#i#j#k.W.9.W.W.W.W.1.n.n.s.n.n.m.z.j.j.j.h.j.b.j#l.c.d.d.c.d.c.d.e",
".d.c.c.c.c.d.c.c.x.qQt.i.i.i.DQt.c.e.d.c.c.c.c.c.rQt.q.iQt.j#h#m#n.X.9#a.W.W.9.W.1.n.n.n.n.n.n.z.C.h#e.h.i.b.j##.c.e.d.c.c.c.d.e",
".c.c.c.c.c.c.c.H##.r.rQtQtQtQt.K.o.c.c.c.c.c.c.H.#.r.#QtQt#o.h.f#p#q.W.W#p.W.W#r#s#t#t#t#t#t#u#v#l.j.uQt.j#l.j.#.H.d.d.c.d.c.e.e",
".r.r.#.#.q.#.#.D#w.o.o.c.c.o.o.p.R.g.g.q.q.g.#.i.H.c.o.o.o.o.c.c.7.P.G.P.P.P.7.G.9.W#x.Z.Z.W.Z#y.L.c.o.o.o.o.o.p.4.r.r.r.r.#.#Qt",
".i.D.i.i.i.i.iQt.c.d.c.c.c.d.d.c.r.qQt.i.i.i.iQt.c.c.d.e.c.c.c.e.fQt.h.i.i.i.i.7.W.W.Y.W.W.Z.Z#z.A.d.d.d.d.d.e.t.j.rQt.j.jQtQtQt",
".j.hQt.iQt.i.i.j.c.d.c.c.c.c.c.c.r.q.i.i.i.i.i.r.c.c.c.c.c.c.c.c.r.q.#Qt.q.D.i.7.8.X.W.W.W#a.Z.W.A.c.c.c.c.c.c.AQt.rQt.j.jQt.b.j",
"#hQtQtQt.i.j#h.j.c.c.c.c.c.c.c.c.f.q.i.i.i.i.i.i.c.d.d.c.c.c.c.c.fQt.q.q.D.i.i.7#j.X.W#f.W.W.W#f.A.c.c.c.c.c.c.AQt.gQt.jQtQt.j.j",
"#hQtQtQt.jQt#h.j.c.d.d.e.d.c.c.o.f.qQt.i.i.i.i.i.c.d.c.d.e.d.c.c.fQtQt.i.iQt.i.7.8.W#f.W.W.W#a#f.A.d.c.e.c.c.d.p.j.rQt.bQt.b.jQt",
"#hQtQt.iQt.j.i.h.o.e.d.c.d.c.e.c.f.iQtQt.i.i#AQt.c.d.d.e.d.c.d.o.f.i.i.iQtQt.i.7.8.W.W.W.W#a#a#p.A.c.e.e.c.c.d#B.j.gQt.jQtQtQtQt",
"#hQtQtQt.#.h.i.h.A.c.c.c.c.c.c.c.w.i.iQt.i.i.i.h.c.d.d.c.c.c.d.dQt.i.qQt.i.i.i#C#p.8.W.W.W.W.W.W.A.d.d.c.c.c.c.c.hQtQtQtQtQtQtQt",
"#D#h#h.h.G.h.h.7.c.c.c.c.c.c.c#w.C.jQtQtQtQt.i#E.c.c.c.c.c.c.c.c.7.#.rQt.iQt.i#C.X.Z.Z.Z#F.X.W.W.A.c.c.A.c.c.c#G.h.i.j.h.h.h.h.h",
"#H#I#J#I#I#I#J#K#L#M#M#N#N#O#L#P.5.c.c.c.c.c.c#w.#.#.#.#Qt.#.i#Q.c.o.c.c.c.c.o.c#F.9.9.9#L#L#R.Z.W.W.W#S#T.W.W#z.y.E.E.v.m.m.m.O",
".F#U#J#U#J#V#J.F#L#L#P#L#L#P#y#y.A.c.e.e.c.c.d.o.f.i.i.i.i.i.i.i.o.d.c.c.d.e.d.A#a#f.9#a.W.9.9.9.9.Y#W#f.W.9.W#W.l.E.v.J.m.z.s.m",
"#J#I#U.F#I#I#J#H.9#X#X#X#Y#Z#P#P.c.c.d.c.c.c.c.o.f.qQt.i.i.i.i.i.o.d.c.c.d.d.c#0#1.W.W.W#a.9.9.Y#z#2#f#f.W.W#z#p.B.B.E.J.v.s.s.m",
"#I#I#J.F#K#I#I#J.9#X#X#3#3#X#X#L.A.c.c.c.c.c.c.c.j.i.i.i.i.i#4.h.c.H.c.c.d.c.c.A.W.W.W.W.W.Y.W.W#z#z.W.W.W.W.W.W.s.B.E.v.m.s.v.m",
"#I#K#J#I#K#K#J#5#6#X#X#Y#3#X#Y#R.A.c.c.c.c.c.c.c.j.i.i.i.i.i.i.h.A.d.c.c.c.c.c.A.W.W.W.W.W.Z.9.W.9.Y.W.W.W.W.W.W.m.v.E.v.v.v.s.O",
"#I#K#H#K#V#H#H#H.9#6#X#X#X#R#P#P.A.c.c.d.d.c.c.o.jQt.i#A#o.i.i.h.o.e.c.c.c.e.d.o#k.W.9#z.W.9.9.W.9.W.W#f.9.W.W#p.m.E.E.m.m.v.s.J",
"#H#J#I#H#V#H#7#7#L#L#6#X#L#8#P#y.L.c.e.d.c.c.d.o.b.i.i#A#A.i#hQt.o.e.d.c.d.d.d.o#T.W.W.9.W.9.9#z#z#p#f#f.W.W.W#W.v.v.J.m.m.v.n.O",
".y#H.y#H#H#H#H.y.Z.9#F.Z#F.9#y#9.p.A.o.c.c.c.ca..C.j.j.j.j.i.i#E.o.c.c.c.c.c.c.d#T#Sa##S#1#S#faaab#W#f.W.W#p.W#f.O.v.v.m.m.n.m.O",
"#3#X#3ac#Xac#Y#Yadae.F#J#J.F#J#Haf#P#N#N.9#N#L#y.5.c.c.c.c.c.c.c.G##.h.h.h#e.7#ia..c.c.c.c.c.c.c.B.nagagahah.naiaj.C.j.C.h.h.h#h",
"#L#X#3#X#X#X#3.9ak#K#I#I#K#K#K#H#P#X#3#L#R#Y#R#y.p.c.c.c.c.d.c.c.j.7#h.i#4#A#4#4#w.d.c.c.c.c.c#0.Ealal.v.z.n.z.z.C.h.jQtQtQtQt.b",
"#L#X#X#X#3#3#3.9#J#K#K#K#K#H#H#H.Z#X#P#Z#Yam#R#P#0.c.d.e.e.d.d.c.b#h.i.i#h#h#h.h.c.e.d.c.c.c.e.p#5.Fanan.v.v.zao.j.j.b#h#hQtQt#h",
"#L#X#X#X#6#3#X.9#J#I#K#K#K#H#H#H.Y#X#3#L#X#3#y#y.L.c.c.e.c.c.c.c.w.i.h.i#h#h.i#h.c.e.da..c.e.e.c#5.vanan.z.v.vao.G#eQt#h.bQtQt#h",
"#L#X#X#X#6#X.9.9#J#I#K#K#H#H#I#7.9#L#X#X#X#3#y#L.L.c.c.c.c.c.c.d.j.i.h#4#4.i#4.h.c.e.c.c.c.d.c.A.Bananan.v.v.v.v.G.j.jQt.j.j.b#h",
".9#L#X#X#X.Z.9.9.F#I#K#H#K#K#K#H.9.Z#X#X#X#X#3.9.A.c.c.c.c.c.c.d.w.i.i.i#4#4#4.h.c.H.d.c.c.c.c.o.B.s.s.s.v.s.n.v.h.jQt.hQtQtQt#h",
".9.9.9.9.9.9.9.W#H#H#H#H#K#K#H#H.Z.Z#3#L#X#X#3#L.A.d.c.c.o.e.d.H.b#h#h.i#4#4#4.7.c.e.e.d.c.d.e.o.s.v.v.s.m.n.zap.hQtQtQtQtQtQt#h",
".9#a.9.W#a.9.Y.Z#7#K#K#K#Kaqar#K#j.9.9.9.9#a#8af.A.c.c.o.o.o.c.Has.bQt.b.b#h#4at.c.d.o.c.c.c.oa..valauan.v.s.vap.h#h#h#h#h#D#D#m",
"#4.h.Pajajajaj.P#0.A.A.o.o.p.t.c#7.F#H.F.F.B#5.Bav#N#N#M#M.W#F.9.c.c.c.c.c.o.c.H.#.#.#.#Qt.f.j#m.5.p.c.A.A.o.t.p.jQtQt.i#e#e#e.j",
".i.q.i.i.i.i.h.h.A.c.c.d.d.d.c.c#K#U.F#J#J.F.F.F#R.9#X#X#6.9.9.9.A.c.c.c.c.c.c.c.r.i.i.iQtQt.7.j.c.d.c.c.c.d.c.A.jQtQt.i.h.jQt#h",
".i.i.q.q.i.q.i.j.c.c.c.d.c.c.c.c#K#U#I#I#J#U.F.F.Z.9#6.9.Z.9.9#a.L.c.c.c.c.c.d.c.fQt.iQtQt.i.i.j.c.c.c.c.c.c.c.AQt.gQtQt.jQt#hQt",
"QtQt.q.q.iQt.iQt.A.d.d.d.c.c.e.oaq#U#I#V#J#U.F#5#L.Z.9#X#6#6.9.9#0.d.c.c.d.e.d.c.fQtQtQtQtQtQtQt.c.c.d.e.c.d.d.pQt.gQtQt.a.jQt.j",
".iQt.i.i.iQtQtQt.c.e.e.c.c.e.e.caq#U#V#J#I.F#J#H#L.W#6#L.9.9.9#8.t.d.c.c.d.e.d.c.fQtQtQtQt#h#h.j.c.d.e.d.c.d.e.t.jQtQtQtQtQtQt.b",
"Qt.q.q.q.qQtQtQt.c.c.c.c.c.c.c.c#Kaw#I.F#U#J.Fax#6#F.9.W.W.9.9.9.p.c.c.ca..c.c.o.f.#.iQtQt.i.i.h.c.c.c.c.c.c.d.AQt.#QtQt.j.jQt#h",
"QtQt.iQt.i.i.i.h.A.c.c.d.c.c.c.c#7aw#J.F.F#U.F.F#6.9.W#F.9.9.9#P.L.d.c.c.c.c.d.e.r.D.iQtQt.i.7.i.c.H.c.c.d.c.c.A.i.i.jQtQtQtQt#h",
".j.fQt.#QtQtQtat.c.c.c.c.c.c.cayaz.F.F#J#J#J#J#7av.9#F#a.W#a.9.Y.A.c.c.c.c.c.da..D.rQtQtQtQt#oaA.d.d.c.c.d.c.c#w#4QtQtQtQt.b.h.i",
".A.o.c.c.c.o.o.c.r.faB.r.rQtQt.baC.8.W#F#F#F#F#L.y.m.n.m.m.n.naD.xQt.#.##d.fQt.7a..o.o.c.c.t.t.p.r.r.g.g.#.fQt.i.c.c.c.o.o.o.t#B",
".d.e.c.d.c.c.d.c.xQt.q.i.iQt#h#4.9#j.Z.9.Z.9.9.9aE.s.B.B.s.s.s.n.C.#.#.iQtQt.i.h.c.d.d.c.c.d.d.c.fQtQt.i.i.i.i.j.c.c.d.d.d.e.e.e",
".e.c.c.c.c.c.c.c.Q.qQtQtQtQt.h.7.W.ZaF#F.Z.9.9.YaE#5.B.s.s.F.s.v.G.#.i.i.i.D.iQt.c.c.c.c.d.c.c.A.f.g.#.iQtQt.i.j.c.c.c.c.c.d.e.e",
".e.c.c.c.c.c.c.c.f.qQtQtQtQt#4#4#j.YaG#F.Z.Z#6.Y.s.B.F.F.s.s.s.s.G.i.iQtQt.i.i.j.c.c.c.c.c.c.c.A.w.g.rQtQtQtQt.j.c.d.d.c.d.e.e.e",
".e.c.d.c.d.d.d.c.fQtQtQtQtQt#h#4#j.Y.Y.9.9.W.Z#f.s#5.F.B.B.E.s.s.jQtQtQtQtQtQt.j.c.c.e.d.d.c.d.o.4.gQtQt#oQtQt.f.c.d.c.d.e.e.e.e",
".e.d.c.c.e.d.d.c.QQtQtQtQt#h#h#m#j.Y.9.9.W.9.Z.W.m.F.s.B.B.F.s.v.jQtQtQt#h.jQtQt.c.e.c.c.d.e.e.o.r.rQtQtQtQtQt.f.c.c.c.e.e.d.e.e",
".c.c.c.d.d.c.c.c.f.#QtQtQt#h.i.7#jaH.Z.Z.Z.Z.9.WaE.B.B#5.s.F.s.n.G#eQt.a.jQtQt.j.c.c.c.c.d.d.c.c.#QtQtQtQt.jQt.j.c.c.c.c.c.c.d.e",
".c.c.c.c#w.c.c#w##.#QtQtQtQt.i#C.W.Y#j#j.Y.W#j.9#J.v.E.s.s.m.n.B#c.hQt.jQtQtQt#Q.c.c.c.c.c.c.c.c.j.rQtQtQtQtQt.K.A.c.c.c.c.d.d.d",
".r.x.r.r.#.r.r.#.A.A.o.o.o.o.o.p.G.G.C.PaI.P.P#c.9#xaGaG#x.ZaJaK.A.c.o.c.o.t.o.c.U.g.#.q.#.g.#.D.5.A.c.t.o.o.caL.#.g.R.r.r.g.qQt",
"Qt.g.gQtQtQt.iQt.c.e.d.c.d.e.e.o.rQtQtQt##.h.i.h.Y.YaG#F.9#6aJ#L.o.c.c.c.e.e.d.c.r.qQt.i.iQtQtQt.c.c.e.e.d.d.d.oQt.gQtQtQtQt.q.i",
"Qt.g.gQt.gQt.#.f.o.d.c.c.c.d.e.c.QQtQt.qQt.iQt.h#j.W#F.Z#FaF#6.9.A.c.d.c.d.d.c.c.rQt.q.i.iQtQt.j.c.c.d.d.d.d.e#0.r.gQtQtQtQtQt.j",
"Qt.gQt.r.qQtQtQt.c.c.c.e.e.d.d.c.r.gQt.i.iQt.i#e#j.Y#N#6aFaF.Z.9.L.c.c.d.d.d.d.c.r.#.#.#Qt.D.iQt.c.c.c.d.d.d.e.AQtQtQtQtaMQtQt.b",
"Qt.g.g.q.r.#QtQt.c.c.d.e.e.d.d.c.f.g.q.i.i.iQt.i#jaNaGaFaF#N#6.Z.A.c.e.e.e.d.d.c.r.#.#Qt.q.i.iQt.c.c.c.e.e.e.d.A.j.rQtaOaPaOQtQt",
"QtQtQt.r.rQtQtQt.c.d.e.e.e.e.e.c.f.gQtQtQtQtQt.h#j.Y#6aF.W#NaF.9.p.d.d.e.e.e.e.c.r.qQt.i.q.q.iQt.c.c.e.e.e.e.d#0Qt.rQtQtaQ.b.b.a",
"QtQtQtQtQtQtQtQt.o.e.e.e.e.e.e.o.fQtQtQt.iQt.i.h.YaJ#F.W.W.Z#6.W.o.e.e.e.e.e.e.c.f.gQt.i.i.iQtQt.c.d.e.e.e.e.e#0.j.gQtQt.j.j.b#h",
"QtQtQtQtQtQtQtQt.o.e.e.e.e.eaR.o.fQtQt.a.aQtQt.h#j.Y.W.W.W.W.W.W.o.e.e.e.e.e.e.c.Q.fQtQtQtQtQt.r.o.e.e.e.e.e.e.o.w.f.fQt.b.u.b#h"};
