/* XPM */
static char *dummy[]={
"64 64 460 2",
"cN c #3d3d3d",
"cy c #3e3e3e",
"dT c #3f3e3e",
"dS c #3f3f3e",
"bS c #3f3f3f",
"ek c #3f3f40",
"bX c #3f4040",
"cz c #40403f",
"a9 c #404040",
"b0 c #414040",
"dk c #414140",
"#4 c #414141",
"b8 c #414241",
"c6 c #414242",
"eR c #424241",
"#F c #424242",
"eW c #424343",
".s c #434343",
"ez c #434443",
"eN c #434444",
"c# c #444443",
"#1 c #444444",
"eg c #444544",
"#2 c #444545",
"eQ c #454544",
"ab c #454545",
"et c #454645",
"#0 c #464646",
"df c #464746",
"db c #474746",
"#Z c #474747",
"dc c #474848",
"cu c #484848",
"al c #494949",
"am c #494a49",
"cx c #4a494a",
"ak c #4a4a4a",
"co c #4a4b4a",
"cE c #4b4a4a",
"ah c #4b4b4b",
"dP c #4b4b4c",
"ai c #4c4c4c",
"dm c #4c4d4d",
"ct c #4d4d4c",
"aj c #4d4d4d",
"aP c #4e4e4e",
"aM c #4e4f4e",
"bL c #4e4f4f",
"dX c #4f4f4e",
"#7 c #4f4f4f",
"#j c #50504f",
".F c #505050",
"cG c #505150",
"fa c #515051",
"bZ c #515151",
"ac c #525252",
"ap c #535353",
"#3 c #545454",
"ew c #545455",
"di c #555454",
"du c #555554",
"bG c #555555",
"ag c #565656",
"ef c #565757",
"e5 c #575756",
"a4 c #575757",
"d1 c #575857",
"dl c #585858",
"a5 c #585958",
"dw c #585959",
"d4 c #595958",
".u c #595959",
"bz c #5a5a59",
".v c #5a5a5a",
"eL c #5b5a5a",
"bm c #5b5b5a",
"cs c #5b5b5b",
"bU c #5b5c5c",
"c8 c #5c5c5b",
"bb c #5c5c5c",
"cM c #5c5d5d",
".0 c #5d5d5d",
"cn c #5d5e5d",
"ds c #5d5e5e",
"dj c #5e5d5e",
"e3 c #5e5e5d",
"ae c #5e5e5e",
"cm c #5e5f5e",
"do c #5f5f5e",
".d c #5f5f5f",
"d6 c #5f5f60",
".Q c #5f605f",
"cT c #5f6060",
"cL c #605f60",
"ei c #60605f",
".R c #606060",
"c3 c #606160",
"cv c #606161",
"dI c #616160",
".y c #616161",
"c0 c #616261",
"eb c #626162",
".z c #626262",
"c. c #626362",
"bA c #626363",
"da c #636362",
".e c #636363",
"dN c #636364",
"dg c #636463",
"bs c #646463",
"#T c #646464",
"bW c #646564",
"dp c #646565",
"e1 c #656564",
".P c #656565",
"dz c #656665",
"#R c #656666",
"#s c #666666",
"ci c #666766",
"dG c #666767",
"bO c #676766",
"#G c #676767",
"f. c #676768",
"e0 c #686768",
"eG c #686867",
"aL c #686868",
"dJ c #686968",
"dH c #686969",
".x c #696969",
"aT c #696a69",
"aB c #696a6a",
"dD c #6a6a69",
".T c #6a6a6a",
"eI c #6a6b6a",
".n c #6b6b6b",
"bK c #6b6c6b",
"cO c #6b6c6c",
"cp c #6c6c6b",
"#S c #6c6c6c",
"dR c #6c6c6d",
"er c #6d6d6c",
"a. c #6d6d6d",
"cU c #6d6e6e",
"aq c #6e6e6e",
"#r c #6e6f6f",
"#b c #6f6f6f",
"aV c #6f7070",
"dB c #706f6f",
".A c #707070",
"dU c #717170",
"#8 c #717171",
"eX c #727271",
"#d c #727272",
"f# c #727372",
"fb c #737372",
".S c #737373",
"#U c #737473",
"bQ c #737474",
"#D c #747474",
"aH c #747574",
"by c #747575",
"bg c #757475",
"cS c #757574",
"aa c #757575",
"eP c #757675",
"aS c #757676",
"de c #767576",
".w c #767676",
"ej c #767776",
"fj c #767777",
"d9 c #777776",
"#E c #777777",
"el c #787778",
"#X c #787878",
"dM c #787879",
"dA c #797978",
"#x c #797979",
"cw c #79797a",
"ca c #797a79",
"aK c #797a7a",
"cD c #7a7a79",
"#f c #7a7a7a",
"cA c #7a7b7a",
"cb c #7a7b7b",
"eh c #7b7b7a",
"af c #7b7b7b",
"d# c #7b7c7b",
"cl c #7b7c7c",
"dd c #7c7c7b",
"#q c #7c7c7c",
"bF c #7c7d7c",
"#t c #7c7d7d",
"#e c #7d7d7d",
"b. c #7d7e7d",
"cg c #7d7e7e",
"e8 c #7e7d7e",
"#u c #7e7e7d",
".U c #7e7e7e",
"ed c #7e7f7e",
"e# c #7f7e7f",
"eT c #7f7f7e",
"aI c #7f7f7f",
"aC c #7f807f",
"aD c #7f8080",
"dx c #80807f",
".O c #808080",
"#Q c #808081",
"c2 c #808180",
"ec c #808181",
"dr c #808281",
"c5 c #818180",
"a3 c #818181",
"dy c #818281",
"aJ c #818282",
"#y c #828282",
"cV c #828382",
"d8 c #828383",
"d2 c #838382",
".r c #838383",
"cK c #838483",
"#Y c #838484",
"e6 c #848483",
"#a c #848484",
"d5 c #848584",
"fe c #848585",
"## c #858585",
"eF c #858686",
"a6 c #868686",
"aA c #868787",
"aG c #878787",
"ax c #878887",
"c9 c #878888",
"ea c #888788",
"#W c #888887",
"#. c #888888",
"d0 c #888889",
"b6 c #888988",
"bf c #888989",
"#6 c #898989",
"eq c #89898a",
"az c #898a89",
"aU c #898a8a",
"#c c #8a8a8a",
"eJ c #8a8b8a",
"bE c #8a8b8b",
".t c #8b8b8b",
"#H c #8c8c8c",
"bD c #8c8d8c",
"dt c #8c8d8d",
".N c #8d8d8d",
"es c #8d8e8d",
"a2 c #8d8e8e",
".9 c #8e8e8e",
"dQ c #8e8e8f",
"dq c #8e8f8e",
"cB c #8e8f8f",
".M c #8f8f8f",
"b7 c #8f908f",
"#o c #8f9090",
"cC c #90908f",
"#p c #909090",
"cq c #909091",
"#w c #909190",
".o c #919191",
"ao c #919291",
"aF c #919292",
"aE c #929291",
"a# c #929292",
"an c #929392",
"ar c #929393",
".8 c #939393",
"cY c #939394",
"cR c #939493",
"bj c #939494",
".m c #949494",
"bT c #949495",
"fh c #949594",
"ay c #949595",
"dZ c #949695",
".Z c #959595",
"dh c #959596",
"bx c #959695",
"bt c #959696",
"dY c #959796",
"cc c #969695",
".i c #969696",
"b2 c #969697",
"bR c #969796",
"bd c #969797",
"ch c #969897",
"bq c #979797",
"cf c #979798",
"dK c #979897",
"b1 c #979898",
".h c #989898",
"eB c #989899",
"be c #989998",
"br c #989999",
"dW c #989a99",
"d. c #989a9a",
"d7 c #999998",
".1 c #999999",
"cj c #999a99",
"bp c #999a9a",
"bY c #999b9a",
".g c #9a9a9a",
"c4 c #9a9a9b",
"ad c #9a9b9a",
"dn c #9a9b9b",
"eK c #9a9c9b",
".E c #9b9b9b",
"eA c #9b9b9c",
"a1 c #9b9c9b",
"cF c #9b9c9c",
"e2 c #9b9d9c",
"dV c #9c9c9b",
"#n c #9c9c9c",
"Qt c #9c9d9c",
".V c #9c9d9d",
"dv c #9c9e9d",
"dC c #9d9d9c",
".c c #9d9d9d",
"bP c #9d9e9d",
"bc c #9d9e9e",
"cr c #9d9f9e",
"c7 c #9e9e9d",
".f c #9e9e9e",
"bh c #9e9f9e",
"bu c #9e9f9f",
"eU c #9f9f9e",
"aW c #9f9f9f",
"#5 c #9fa09f",
"bn c #9fa0a0",
".3 c #a0a0a0",
"bo c #a0a1a0",
"bl c #a0a1a1",
".q c #a1a1a1",
".B c #a1a2a1",
".p c #a1a2a2",
"#N c #a2a2a2",
"cJ c #a2a3a2",
"e. c #a2a3a3",
"#z c #a3a3a3",
"ee c #a3a3a4",
"#M c #a3a4a3",
"ev c #a3a4a4",
"aR c #a4a4a4",
"#i c #a4a5a4",
"#k c #a4a5a5",
"b9 c #a5a5a5",
"d3 c #a5a6a5",
"eo c #a5a6a6",
"ce c #a5a7a6",
"aO c #a6a6a6",
"eM c #a6a7a6",
"e7 c #a6a7a7",
"cW c #a7a7a7",
"fi c #a7a8a7",
"e4 c #a7a8a8",
"eH c #a7a9a8",
"#C c #a8a8a8",
"eZ c #a8a8a9",
"aN c #a8a9a8",
"cI c #a8a9a9",
"#I c #a9a9a9",
"b5 c #a9aaa9",
".5 c #a9aaaa",
"a7 c #aaaaaa",
"ck c #aaabaa",
"eE c #aaabab",
"#P c #ababab",
"c1 c #abacab",
"b4 c #acacac",
"ex c #acacad",
"en c #acadac",
"b# c #acadad",
"#g c #adadad",
"aw c #adaeae",
"eV c #aeaead",
"cX c #aeaeae",
"cP c #aeafae",
"aY c #afafaf",
"bB c #afb0af",
"eC c #afb0b0",
".7 c #b0b0b0",
"a0 c #b0b1b0",
"#V c #b0b1b1",
"#L c #b1b1b1",
"cZ c #b1b2b1",
"bv c #b1b2b2",
".4 c #b2b2b2",
"#O c #b2b3b2",
".l c #b2b3b3",
".2 c #b3b3b3",
"bN c #b3b4b3",
"dF c #b3b4b4",
"dE c #b3b5b4",
".W c #b4b4b4",
"dL c #b4b4b5",
"aQ c #b4b5b4",
"aX c #b4b5b5",
"cH c #b4b6b5",
"a8 c #b5b5b5",
".D c #b5b6b5",
"#h c #b5b6b6",
"bM c #b5b7b6",
".# c #b6b6b6",
"cd c #b6b7b6",
"ey c #b6b7b7",
"#B c #b7b7b7",
"#l c #b7b8b7",
"#m c #b7b8b8",
"bV c #b7b9b8",
"#A c #b8b8b8",
"eS c #b8b9b8",
"#J c #b8b9b9",
".6 c #b8bab9",
"b3 c #b9b9b9",
"eO c #b9bab9",
".L c #b9baba",
"au c #bababa",
"em c #babbba",
"#v c #bbbbbb",
"bJ c #bbbcbb",
"av c #bbbcbc",
"dO c #bcbcbc",
".K c #bcbdbc",
"eu c #bcbdbd",
"bC c #bcbebd",
".Y c #bdbdbd",
"cQ c #bdbebd",
".J c #bdbebe",
"ep c #bdbfbe",
"at c #bebebe",
"e9 c #bebebf",
"as c #bebfbe",
"bI c #bebfbf",
"bw c #bec0bf",
".b c #bfbfbf",
"bk c #bfbfc0",
"bi c #bfc0bf",
".X c #bfc0c0",
"bH c #bfc1c0",
"eD c #bfc1c1",
".H c #c0c0c0",
"aZ c #c0c0c1",
".I c #c0c1c0",
".j c #c0c1c1",
"#K c #c0c2c1",
"eY c #c1c1c0",
".k c #c1c1c1",
"ba c #c1c1c2",
".G c #c1c2c1",
"#9 c #c1c2c2",
".C c #c2c2c2",
"fc c #c2c3c2",
".a c #c2c3c3",
"fd c #c4c5c5",
"fg c #c6c7c7",
"ff c #dddddd",
"Qt.#.a.b.c.d.e.f.g.h.i.i.j.k.l.m.n.o.p.q.q.q.r.s.t.n.u.v.w.x.y.z.z.A.r.B.k.C.D.E.A.F.n.G.H.I.j.I.I.J.K.L.M.N.O.P.d.Q.R.R.h.S.T.U",
".V.W.X.Y.Z.0.R.1.2.3.f.4.5.6.7.8.T.9.h#.###a#b.s#c#d.P.e.r#e#f#f#f.h#g#h.k.l#i.g.A#j.R#i#k#l#m#n#n#o#p.f.M#q#r#s#t.n.y.y.O.T.T#u",
"#n.2#v.W#w#x#y#z#A.c.1#B.m#C#C.9.d#D.w.x#E.n.u#F.o.r#d#G.r#f#f#e#H#I#J.G#K#L#M.g.A#j.R.B#N#O#P#Q#d#R#G#E.w.P.0.T.m.S.y.d#S#T#s#U",
".E.2#V.g.i.2.k.k.f#a#W.3#X#p.m#Y#Z#0#1#2#x#3.s#4#5.q#6.y.P#7.F#8#n.c#C#K#9#K#h.E#b.Fa.#9.I#ga#aa.s#1#1#1#1abac#dad#E.y.0.d.daeae",
"afag#1#0ahaiaiajak#Zalajalaiamal#F#Eanao.r#Gap.saqaqafar.P#saa.Zas.Xatau.k#Kavaw.A#7#S#9#5ax.n#F.1.g.g.g#q.z.nay.taz#.aA.d.daBaC",
"a##a#a.oaD#HaE.oa#araFa#aG#faH#d#FaI.ZaJ#d.0aj.saK.zaL.MaM.w.1#VaN#J.X.b.k#K#BaO.AaP.PaQaR#6.x#4.E###EaSaT.z#GaaaU#caG.OaV.P.e.T",
"aWaWaOaXaY.2.#aZ.4#L#m.ja0a1ana2#Fa3a##D.Pa4aPak#Xa4a5a6#0##a7aQ#k#A.j.k.k.Ia8.f.TaP.yaR#z#6.xa9.E#E.z.y.S.Saq.e.U#ab.#S#d#s.d.d",
"aW.f.faW.C#z.qatao.o#N.I.Y.3#paz.s.O.t.x.v.v.u.vaeaj.u#e#1.mb#aWba.I.j.j.H.H#h.c.0akbb#pbcaG.xa9ad#X#T.zbdbebf.z.zbg#dac.d.d.d.d",
"bh.W.bbi.k#zbj.Zbkbl.q#K.k#B#k.ta4aG.8#f.v.u.v.u.v#8#qaIbmbn.H.X.k.k.Y#A.I.j#h.c#D#7.Rbo.caG.x#4bp#E.wbqbrbe#cbsbtbe#6ae.daq#X#X",
"buaObv.I.I.Da0#LaR.Z.qbw.f.Ebx#6al.r.m#q.r#yby.vbz.0.ybA#5#B.k.k.G#LbBbC.Ias.Lbvaa.F.daW.haG#Sa9.1bDbE.1.1.rbF#6bpa3a..R.R.P.zbG",
"aWaWa7.j.jbHbIbJbo.m.qat.Ebq.m#pa9#y.m#q.h.M#faebKagakbLbM.J.k.k.IaY#PbN.Xat.L#ObOaP.RbcbP#Ha.a9.h.m.N#6#6.SbQbR.t#8.y.d.R.RagbS",
".faWa7bH.j.Iau#L.H.3bn.j.IaYaO#z#4#ybT#qbq#E#G.e.8bU#4#F.c.#.k.jatas#Lbq.b.b.4ayaP#1.R.qbV.Zaqa9be.Oa..P#T.P#daF#GbObW.d.d.dbGbX",
"#BaO.3.q.m.m.8aF.HbIbI.jbH#zbqbt#4a3aW.3#u#b.w.1bY#bbZb0.f.#.k.H.H#Nbxb1.#.qbq.Z#d.F.za7b1#q.z#4br.O.wa6#E#6.Zb2bj.w.zagae#8#b.u",
".3aW.3.3aYbBbBaYbwb3b4.Zb5#N.E.i#4aI.hb6b7.S.n.wad.AbZb8.fa8au.7b9bt.O.d.Tc.bbaeacc#.z#I#6.UaL#4be.O#b#b.y#x#q#S#D#f#f.wcacb.A.v",
".M.m.Zcccdcdbv#P#lcecfaGbu#nbqa##4cgchaG#p#D#scicj.Aac#4.cck.q##cl#X.A.0cm.daecnco#1cm.q#eafaL#4.1.Ocp#T#7.Rbs.u.y#d#f#f#faa.T.v",
"a3a3#e.S.f.3cq.w.q#.a3.h#z.M#.###Fb..VbP#x.n#s#Gbr#bac#4#na6aL.s#4#4#Tbhbhbhbhcr.eakcs.9.S#d.ya9.haI.n#Ta9bSalbbbbbbbbbbcscscscs",
"#0#0ab#0.F#7ctalaPaialahalcualala9a3#n.E#S.z#8.c.1cv.s#F.1aa.T#fcw#XaG.f.f.fcrcr.ecx#4#0#1#0#Fcy#0.sa9#4bScza9#4#F#F#F#F.s.s.s.s",
"cA#f#f#f#fac#F#0#E.O###y.O#aaG#caG.haR#LcBcC#paG.O#Gapa9.i.w.xcD.oa#.M.9.M#ca2bP.zcEbSa9#x#x#x#x#x#x#X#X#x#x#x#x#xbGa9#4#EaeaibS",
"cF#nbpbtaWaqcG#0#P#O#B#AaYbNcHbvcIcJck.JaW#z.3a##f.Aaecy.8.w.n#eaF.8bE.Oa3cgcK.h.zakahcL.g.8.N.N.gan.9.9#H.t.Na#ancM#4#4.i#bbZcN",
"#n#n.ma6#N.9cO#1atcP#k#kaAbdcj.N#zcJb4cQcRan#5.J.t.w.0bS.Z.Sa.a6#e.S#daacS#x.Obf.yahcT#na1.U#d#d.1a3.w.wa.cU#dcV.rag#4#4.i#bcGcy",
"a1#ncWavcX#o#S.s.Jaw.fbDaua7a7atatatatcQ.8a#aW.Y#La3bb#4.EaG.taO#n#n#n#n#n#n.c#n#Tak.R.E.O#X#a#n#eaf#DaLcYaa.e#T.Oag#4#4.Z#b.v.u",
"#VcZ.#at#p#a#S.s.Y#g#z.fcX#IcW#C#I#Batat.7aY.4.Y#La3bba9.g#c#cbn.c.f.f.f.faaae.RaP#F.R.E#baq#e.E.o#y#DaL#xaI#X.z.Oaga9a9a..zc0#8",
".##Lb4cWa3aDbK.s.Y#g#N.faRb9#z#n.mcW.D#ha8a8a8aXc1c2bba9.E#ca6.Z.Z.Z.Z.Za1.Abba4ah#1c3.E#G.AcVc4.9a3#DaL.Sax.r.zaCag#1ai#s.R.Ra.",
"b9bR#.#X.Oc5.nc6bIc1bq#.c7#n#n#n#X#oaW.f.c.c.f.f.f#fc8#F.g#6.O.Oc2a3a3a3.i.iay.9c3ah.y.EaLc9d.bp.T#DbQaL#.aAd#daaIbGai.x.r.Tap#4",
"#Tapcudb#Zdc#1czajakcucua3.r.r#y.O#D.R#Z#Z#Z#Z#Z#Z#Zababa#a6.O.O.O#X#Edd#e#ede#GcTdf.yadaL#X#x#GaLaLaLaLaG.Adg.zaI#3a4aydh.da9a9",
"aealai.ydi.n.w#E#E#X#G#4.Oa3.O.Oa3claqdj#Fdk#4a9a9#Fb8#4.d.vdldldlagbGaga4a4#3aPdm#F.ddn#y.S.n#GaabO.zaLaG#b.z.zaG.uah.R.R.v.Fa9",
"docMdp.Saa.obqdq#H#H.wa9aI.t.Mazdra6c9.Ucu.sa9#F.0.0.0.0dscn.0.0.0.0aeaeaeaeds.0.0ae#D.g#caa#S#G#a.T.daL#a#d#s.y.9#b.R.R.RaebG.s",
".daUdt#8#n.c.9#8aeaeduaba3#N#g.1#y.maWdvdwaldk#0bp.g.E#n#n.E.Edn.Edn.E.E.E.E.E.E.EbpcF.gdxdy#Xdz.Z#b.d.xdA#fdB.0bR.h.h.1.1.naP#0",
"#E.oa1ad.VdC.o#fdDbbaPab.3dE.X.X.X.HdFbuafbZdkdfb1bQ.z.Paq#b#q.g.xdG.w.1.n.TdHaL.o#X.S.r.S#e.Oa3#SdIcs.vbb.R.yaebx.haGaLdJap#0bS",
".O.9.o.Oaf.8dK#o##.e.F#Z.W.Y.X.I.j.jdLaW#SaPdk#0bq#..U#fbbdlcs#Gae#X.N.g#a#a#f.P.M.w.Sdt.P#s#S#D.TaT.SaIcsaecO#abR.raSdM#sacabbS",
".N#H#caI#X.o#n.E#ydNbZalbkdOau.#bi#B#P.1.Rai#4#0bqbd.ma2.vdPak#3a.dtb1.iaGaG#q.P.Maaaa#pbb.P#S.S#daaaIdQ.v.ddRaG#6aVa.cK#8bGabdS",
".g####cFa1.E#n.Ecscsapcu.X.W#IbubIaW.M.9.yah#4#0.ibdbRbR.P#7aj.ebe.g.i.t.e.e#Tbs.M.S.A#aaebQ.O.O.O.O.OaDcs.0.zc0.z#TdR#a#Ybb#0dT",
".1dU#d.EdV#nb6aebbcs#3cu.XckbhaW.b#5dW.D.AdX#F#1a1.ibRdYdZ.Q.d.hbp.gbf#s.Pa6.N#q.e.ebKa3d0aLd1dldldla5dl.vaad2#abQb.#acVcm.0apbS",
"cJaH#T#X.E.E#..v#x#Gapcu.X#mb4aWata8d3aF#Td4aP.scF.1b1.id5d6#sd7.w.MaG#T#Ta6.9#qc..z.P#bd8d9aq#Sag#7.u#D#Da3bFdzc0.w#f.ncg#G#3cy",
".cafa.#f.E.oaI.yaA.n#3#Zbi#Ab4#n.4.2e..O.0.0#3.s.g.Mc9a6.r.y.z#..e#qcK#Da.#a#c#e.n.n.n#S.Ue##q#Dae.F#3#b#d.Saqag.u#b#b.v.U.xapcy",
"##a6#6cF#naIa..xea.T#3#Z.baR.Z.i.i.Z.NaI.0bb#3.scR#D#T#Tbe#Tap.eeb.e.SbRec.Oa3#e#e#e.Ued.UaI#f#8.SdlabbSa9aPaga4.R.z.RcscscsapbS",
"bD#H#6.O.r#q#8.z#Tdaa4#Zatee.i.ia3a3.w.d.0bb#3.scR.S.Sdh#Sefcs#e.U.n.e#T.PaL.A#e#e.U.U.U.U.Uafaa.u.v.u#3bSaPagagapapbGcscscsapbS",
".r.raJb.#b#SaL.y.z.za4egbna#aGa6aI#d#s.0bb.0#3b8#d#GdH.weh#Teia.a.#R.z.e.e#b#E#e.UdgapapapapapbZ#Zcual#0a9aPagag#3csag#Z#Zcu#0cy",
".w.w.w.w.e.z.z.z.z.y.ual.raK#E.wejdG.0.0.0.0#3ek.y.z.z.zelaL.zbA.z.z.z.e.z#b#X#eb.a4bSbSa9a9bSbSa9bS#4#0#0.FagbGbGcsbG.s#1#1.s#4",
"#T#T#T#T.z.z.z.z.y.y.y.R.y.R.dc3.0aeae.0.0.0#3cy.z.z.y.y.z.z.z.z.z.z.z.z.z.y.n.U#qbGa9cycya9bSbSbSa9abacap#3bGbGbGac.F.F.F#7ajcu",
"dOdOboci.3.p#H.z#y#X#ea#a#a#af#Zas.Kaw.M.9.9#nembRbt.faY#nena##0dO.Keo.A#1.mepcQeq.v.T#A#A#.bb#F.8.Z.i.ibqbqbqbqbq.h#y.F.Ferafaf",
".Zbq#c#8b#e..8#y#yaGes.8#X#EaLab.I#L.BbqaYcPa7.pb5.c.qbJ.W#m.m#0.X#v.5#H#0bq#Kbi.Ecv.T.H#gb9#6dl#X#x#x#x#X.w#E#x#8.Na2#dcgbE##.n",
"a6a6####addt##.O#8d##aaGcsbmapab.XaYaOaOaZema7.o#Ja7a7#hbHav.m#0.H#LaO.fetb1eu#lev.z.nb3.VdF.5a3.P#T.Pdp#Taq.w#x.d#a.i.t.g.g#..y",
"#n.E.Ea1aL.Pbbakakew.y.ncs.vap#1.H.k.H.H.I#Ibqa#.X.j.#bnbibJ.m#0.b#CQt.c#1cf#Bbo.p#T#Texbx.7eudO#s#T#T.P#s#6.E.E#TaG.1.gad.Eax.y",
".f#X.xaL#s.Nc4.ZakaI.1bp.P.0ac#1bH.I.4.h.H.X.7a#bH.j.I.H.Ibi.h#0.b#I.Oab.sbceybob9.P.n#9#z.ccWcQez.sai#TeA.caU.e.e#X.U#beBaf.SaI",
".U#b#f.q.qeC#g.1dl#a.E.g.P.0ac#1bHeDbJ.4eEaO#na#bHbHbJ#g.kcZeF#Z.XaOaAbsaTeE.Ka8aO.e#GeE.8.hcWep.scu.R.tcF#a#dbs#T#GaLeG#E#E#X#x",
"#.a6.h.I.D.Db4#n.RaS#H.E#s.0apegbHbH.j.bbn.1cRanbi.H#vaw#BcW.OcubieH.8#ebKce.X.baW.z.0aycF#ncWat.saceIbj.NbF#E#X#E#G.d.z#X#y#aaf",
"bHeDbHbIcFbY.E#nbbag#8.g.P.0apabbH.j.H.baWbu.Ea#.b.bbi.b.c#n#ycubI.4#N.N#1.Z.IbIeJ.0dl#yascWcWat.s.v#b.U#T#6dneK.Eaa.z.z.hdnaF.r",
".X.I#K.XaRaf#X.E.0a4#8.g.1#EeL#1bHb5eM.b.fbq.i#n.c.f.c.c.c#a#GabbI.q.9.N#1.Zb4ecbbak.zbndFaRcWateN.v#b.Ubb##c4.E.Eaa#d.g.g#6#E.e",
"#PeO#K.H.#.g##.Oejdl#sbp#feP.PeQ.X#A.7.5.3aa.y#T#T#T.e#T.PbbajeR.S#Gae.R#F.ZeSb9aAbb.zbncJ#P.#bweN.uaqeT#d#x#e#e.Eaa.n.O#6#yeP.z",
"aR#B.bau#BblaU#X#x#3.y.1.z.S.n#1biaubB#5bq.dahc3.y.R.P.n.n.n.T.T.T.n#Ga4#4bRemaYaG.uc.eU#nc1.6bi.s.ubK#E#E#b#8b..gaa.e.naDaf.A.e",
".H.I#veVblaU#y.r.yai.y.h.z#x#b#1.b#P.3.q#ad1c0bP.c.feE.j.I.I.I.I.H.kb##ceW.ia8.Zdlalc.aW.f.fcIcQ.s.u.P.P#Tdg#DcFdn#8.0.0aI#S.z.e",
".c.W.k.bbu#yeX#8#a.u.R.h.z#f.S#1.b.Jav#v.haeae.8.cdF.HeY.H.H.k.k.ka7#n#n.r#P.lbd.A.nafaWcQ#CeZcQ.s.u.P#T#T#xcKa6#E#T.P#e.P.e#S.U",
".2dO.L#I#C.ha3.x#8bZ.Rb1#a.t#e#1.b.7aOaR.h.dae.Z.W.K#Aa7.H.k.k.H.Hb3#PcFa6#E.x.ydd.de0buas#C#CcQ.s.u#T#Tbs#S.A.A.n#T#T#S.e.e#saq",
"#gaubM.c.had#H#sdzaj.yb1bqbq#y.s.H#C#n.E.h.d.ddK.7.l#IcjaX.Y.I.H.k.Lb4cF.N.xa4dl.r.u.0.Eat#C#CcQ#F.u.Pe1#T#Te1.P.Pe1#T#T#T#Tbs#T",
"aI#I#hQtaL.N.N#s#saPezcucu#Zab#4#Z#0#Z#Z#0#F.dcj.8.oa#anbp.D.I.k.k#C#n#ne2a2eF.r#ydle3.m.KcWe4cQ#F.s#1#1#1#1#1ab#1#1eQab#1#1#1#1",
"asaOaDdbababab.s#1.Aa3.O.OaIaI.OaI#Te5a4a4cucs.t.YcQbB.Z.bbH.j.k.k#C.c.c#M.p.q.qe6dlaLaXdOe7aOdO.s.z#D.S.S#D#DbQ.S#3aP.na6a6#edG",
".HcWa##qe8.Raj.s#X.N.N.S#d.ta##6.8#bbbbbaeah.v#6#Ce4.3.Z.H.I.k.Hb9cX#I.Z.WaR.f#I#aa4.z#CbIcWaW#P#F#q.E.Eb4#gcW.c.f.z.RaOatat#A#I",
".XcX.p.cbt#da4eRbq.h#6#G#G#xa3a3.8#q.A#b#Tai.0aF#w.m.g#NbH.j.k.H.c#Ickbcatb9cFbn.ra4c0e4.jaYaRaW#F#q.g.Eaue9#A#CaW.yf.#mat.b.Y#A",
".b.X.W#n###d.v#4bqbebe.hbr#S.ea3.g.Ea1#nf#fa.e.qfb#c#N.k#K.j.j.k.j.E.1.b.b#CbqaG#ydl#S.I.jfc.D.f#F#q.E.Edn.2.Xbibc.e.d.1fdbw#Obq",
".Xa7bhbP.ccD.u#4bqbr.1brd#.e.eaIa3a..z.z.yai.db1.xfe.ibp.IeEb9.j.k.XdO#Aep#C.f.c#ya4#S#K.Ibh#qaj#4aF#O.EdOasbHbiata..0aOfffgatcQ",
"#C.q.c.fc7#a.P#4b1.M#6#6bb.u.0.x.x.zaeae.dahaebqa6#x.tcP.H#A.#.j.j.X.JavatcW.1.N#ya4#SbH.I#ce1.Ra9.wfh.Eatbwbw.b.Ha.ae.1aYe4#Cfi",
"QtaR.3.o.c.t.n#4.h#6.O.O#0ap.v.vcsbb.0ae.dahaebqb1#Xb..7.j#vau.Ha8emauaXbNaR.Z#y#ya4#SbH#K#a#Td##4.u#x.gevcd.K.#.ba.cn.h#H#H#p.g",
"#n#ma7#d.f.t.n#4bq#6.O.O#0ap.vcscsbb.0aeaeahaebddKaI#f#H.X#IcWasbqa0#g.o.N.h.Za3a3dl#S.H.Ic9#EcFa9#4.0.1c3bo.W.E.b#S.0be.x#Gfjad"};
