/* XPM */
static char *dummy[]={
"64 64 502 2",
"#0 c #320200",
"#Q c #340200",
"ak c #340201",
"aj c #350101",
"#B c #350200",
"#C c #350201",
"aR c #360101",
"#u c #360200",
".4 c #360201",
"#H c #370100",
".N c #370101",
".M c #370200",
".3 c #370201",
"#j c #380100",
".1 c #380101",
".2 c #380200",
"#k c #380201",
".o c #390100",
".I c #390101",
"#i c #390200",
".i c #390201",
".q c #3a0100",
".K c #3a0101",
"au c #3a0200",
".j c #3a0201",
"#A c #3b0100",
".J c #3b0101",
"#O c #3b0200",
".L c #3b0201",
".6 c #3c0100",
".5 c #3c0101",
"#G c #3c0200",
".k c #3c0201",
"aE c #3d0100",
".r c #3d0101",
"#R c #3d0201",
"#z c #3e0101",
"#P c #3e0200",
".Y c #3e0201",
".H c #3f0101",
".Z c #3f0201",
"#t c #400101",
".l c #400201",
"eZ c #400f0e",
".S c #410101",
".h c #410201",
".0 c #420101",
".m c #420201",
"ed c #421111",
"es c #421211",
".s c #430101",
".G c #430201",
".p c #440101",
"#h c #440201",
".8 c #450101",
"dL c #450b0a",
".7 c #460101",
".n c #460201",
".Q c #470101",
".P c #480101",
"#g c #480201",
"bw c #490100",
".u c #490101",
"#s c #490201",
"#Y c #490303",
"fh c #490505",
"bN c #4a0100",
".O c #4a0101",
".y c #4b0100",
"#m c #4b0101",
".X c #4b0201",
".w c #4c0101",
".g c #4d0101",
"#f c #4d0201",
"cz c #4e0100",
"#l c #4e0101",
".x c #4f0100",
"bt c #4f0101",
"ej c #4f0a0a",
".t c #500000",
"#Z c #500101",
"fP c #510000",
"#. c #510100",
"## c #510101",
"fM c #510505",
".F c #520100",
".E c #520101",
"#e c #520201",
"#8 c #520706",
"a7 c #530100",
".9 c #530101",
"bf c #530201",
"fQ c #530403",
"fr c #530606",
"dY c #530b0b",
"ci c #540100",
".f c #540101",
"aU c #540200",
"#r c #540201",
"#9 c #550100",
"#y c #550101",
"a. c #550200",
"#M c #550201",
"e7 c #550605",
"bv c #560000",
"cS c #560100",
"#N c #560101",
"c5 c #560200",
"em c #560301",
"fu c #560605",
"cB c #570000",
"av c #570100",
"bg c #570101",
"dC c #570d0c",
"cj c #580000",
"#a c #580001",
"al c #580100",
".R c #580101",
"#2 c #580200",
"#V c #580201",
"aF c #580503",
"eJ c #580504",
"eK c #580705",
"eQ c #580706",
"bu c #590000",
"#S c #590100",
".W c #590101",
"dG c #590604",
".v c #5a0000",
"ch c #5a0100",
"bs c #5a0101",
"aa c #5a0201",
"eE c #5a1616",
"cT c #5b0000",
"aw c #5b0100",
"be c #5b0101",
"a# c #5b0200",
"#q c #5b0201",
"af c #5b0d0c",
"bK c #5c0100",
"#F c #5c0101",
"b0 c #5c0d0b",
"dm c #5c0e0e",
"cc c #5c0f0e",
"cA c #5d0000",
"aH c #5d0100",
"aQ c #5d0101",
"#x c #5d0201",
"#5 c #5d0706",
"aG c #5d0b09",
"eI c #5d0c0b",
"a8 c #5d110f",
"br c #5e0101",
"am c #5e0201",
"cu c #5e0e0d",
"#3 c #5f0100",
".e c #5f0101",
"d3 c #5f0d0b",
"aV c #5f100e",
"#4 c #600101",
"#L c #600201",
"db c #600f0d",
"an c #60100d",
"fO c #601110",
"#X c #601614",
"ag c #601816",
"aD c #610101",
"c1 c #610f0d",
"ft c #611210",
"fV c #611816",
".D c #620101",
"#T c #620201",
"cO c #620f0d",
"cs c #621514",
"eO c #621716",
"cG c #621816",
"ce c #630000",
".c c #630101",
"ax c #630f0d",
"e9 c #631210",
"bM c #640000",
"#1 c #640100",
"ah c #642220",
"#U c #650101",
"ab c #650201",
"fx c #651816",
".a c #660101",
"en c #661614",
"bU c #661e1c",
"bh c #66201e",
".# c #670101",
"aI c #670f0e",
"d2 c #671513",
"a4 c #67211e",
"#p c #680101",
"#K c #680201",
"ai c #681312",
"b9 c #681e1d",
"aP c #690100",
"bc c #690101",
"aO c #690909",
"dI c #691715",
"bD c #691e1b",
"cp c #691e1d",
"c. c #691f1e",
"ek c #692422",
"a3 c #6a0100",
".A c #6a0101",
"dH c #6a1916",
"aS c #6a211f",
"er c #6a2422",
"#E c #6b0100",
".d c #6b0101",
"bV c #6b2220",
".T c #6c0100",
"#d c #6c0101",
"bJ c #6c0202",
"ac c #6c0f0d",
"eH c #6c1e1b",
"by c #6c201e",
".b c #6d0100",
".z c #6d0101",
"dJ c #6d1c1a",
"ar c #6d2522",
".C c #6e0100",
"fa c #6e1817",
"bO c #6e211f",
"aq c #6e2422",
"bq c #6f0001",
".B c #6f0100",
"#D c #6f0101",
"aA c #6f2623",
"dZ c #6f2624",
"fy c #701918",
"bn c #70201e",
"fg c #702624",
"eF c #702b29",
"cF c #702c29",
"ey c #702e2c",
"cU c #702f2c",
".V c #710100",
"#c c #710101",
"eR c #711b1a",
"az c #712422",
"bE c #712623",
"f# c #712f2c",
"eY c #71302c",
"bd c #720100",
"#J c #720101",
"#W c #721614",
"dD c #722825",
"cK c #722927",
"fX c #722a27",
"#w c #730100",
"#n c #730101",
"b1 c #731b18",
"fZ c #731b19",
"fz c #731c1b",
"fb c #731d1b",
"fE c #732523",
"aM c #732623",
"cJ c #732a27",
"#b c #740100",
".U c #740101",
"fB c #741d1c",
"b. c #742320",
"aY c #742421",
"aL c #742422",
"dn c #742825",
"fR c #74312f",
"#o c #750101",
"a2 c #760101",
"cf c #761e1c",
"ck c #761f1c",
"fA c #761f1e",
"bL c #762523",
"aZ c #762824",
"ec c #763533",
"b3 c #770101",
"bH c #770908",
"eS c #772321",
"b# c #772824",
"bo c #772825",
"dc c #772925",
"b2 c #772926",
"a6 c #772b28",
"eh c #773432",
"fc c #782221",
"cP c #782925",
"#I c #790100",
"dE c #792321",
"cd c #792522",
"cv c #792825",
"Qt c #7a0101",
"do c #7a2421",
"#7 c #7a2d2a",
"fN c #7a312d",
"#v c #7b0101",
"dd c #7b2421",
"dF c #7b2522",
"dp c #7b2523",
"fD c #7b2524",
"de c #7b2622",
"dr c #7b2623",
"fe c #7b2624",
"ei c #7b3735",
"fd c #7c2725",
"fs c #7c312e",
"bI c #7d1f1d",
"c3 c #7d2825",
"eT c #7d2926",
"aC c #7d302c",
"e8 c #7d322e",
"dW c #7d3937",
"fC c #7f2926",
"eC c #7f3a38",
"at c #803934",
"cR c #812c29",
"eU c #812d2a",
"eD c #813c3a",
"cx c #822a27",
"cN c #82322f",
"eV c #83302d",
"dM c #833b37",
"dX c #833e3c",
"d5 c #843532",
"dV c #843f3c",
"eu c #85332f",
"eo c #853835",
"ds c #853f3c",
"a1 c #862926",
"e. c #863532",
"d1 c #863632",
"d4 c #863935",
"eg c #863f3d",
"eW c #873330",
"ff c #873430",
"d0 c #873531",
"eM c #873b37",
"ae c #873f3b",
"ev c #883431",
"c6 c #883633",
"ew c #883834",
"cV c #88413d",
"fW c #88413e",
"bx c #892a27",
"bp c #892a28",
"c2 c #893633",
"d9 c #893835",
"eL c #893e39",
"dz c #894340",
"et c #8a3835",
"e# c #8a3b37",
"ep c #8a3d39",
"fF c #8a403c",
"dT c #8a4541",
"cg c #8b3d39",
"#6 c #8b3f3b",
"dy c #8b4441",
"dA c #8b4541",
"bb c #8c2c28",
"bG c #8c312e",
"fw c #8c433f",
"e5 c #8c4542",
"dj c #8c4543",
"e4 c #8c4642",
"fv c #8d4642",
"e2 c #8d4643",
"cL c #8d4644",
"eX c #8e3e3a",
"dq c #8e3f3b",
"c4 c #8e403b",
"cy c #8e403c",
"eq c #8e433f",
"aN c #8e453f",
"fS c #8e4543",
"bz c #8e4642",
"c0 c #8e4745",
"fL c #8e4845",
"bC c #8e4846",
"f. c #8f4541",
"d. c #8f4844",
"d# c #8f4845",
"fK c #8f4946",
"cw c #90413d",
"d6 c #904440",
"cr c #904541",
"fT c #904641",
"eB c #904745",
"dk c #904845",
"dK c #904946",
"e3 c #904a46",
"ea c #91413e",
"fi c #914541",
"dx c #914946",
"di c #914a46",
"fq c #914b47",
"dP c #924541",
"dB c #924a47",
"eG c #924b47",
"fp c #924c47",
"d8 c #93453f",
"eb c #934642",
"cq c #934a46",
"fo c #934b48",
"cZ c #934c48",
"bB c #934d48",
"ex c #944541",
"cM c #944945",
"cC c #944a46",
"bR c #944b46",
"c9 c #944c49",
"d7 c #954641",
"e0 c #954844",
"b7 c #954b46",
"c# c #954c47",
"ef c #954c48",
"e1 c #954d48",
"e6 c #954e49",
"bT c #954e4a",
"ez c #964945",
"dN c #964a45",
"cl c #964a46",
"dU c #964c49",
"dh c #964e4b",
"bY c #974944",
"dO c #974a45",
"ee c #974c48",
"bW c #974d48",
"fJ c #974d4a",
"el c #974f4a",
"dw c #974f4b",
"bl c #97504b",
"bm c #97504c",
"eN c #984d49",
"fn c #984f4b",
"dl c #98504b",
"bS c #98514b",
"bA c #98514c",
"eP c #994d49",
"b4 c #994f4a",
"dS c #99504b",
"co c #99504c",
"b8 c #99514b",
"fm c #99514c",
"dQ c #9a4e4a",
"fI c #9a4f4b",
"eA c #9a504b",
"da c #9a504c",
"bk c #9a514c",
"fl c #9a514d",
"bF c #9a534d",
"dt c #9b504b",
"fj c #9b514d",
"fk c #9b514e",
"cm c #9b524d",
"cI c #9b524e",
"cY c #9b534e",
"aB c #9b544d",
"as c #9b564f",
"fU c #9c524e",
"c8 c #9c534e",
"cn c #9c534f",
"fG c #9d514d",
"dR c #9d534e",
"dg c #9d534f",
"bj c #9d544f",
"aT c #9e554f",
"ca c #9e5550",
"a9 c #9e5651",
"aX c #9e5751",
"dv c #9f5550",
"bX c #9f5650",
"bi c #9f5651",
"ct c #9f5751",
"aW c #9f5752",
"du c #a05550",
"a5 c #a05651",
"cH c #a05751",
"ad c #a05a54",
"ap c #a05b54",
"c7 c #a15651",
"fH c #a15652",
"df c #a15751",
"cX c #a15752",
"bQ c #a15852",
"aJ c #a15953",
"aK c #a15954",
"ay c #a15a54",
"a0 c #a15b55",
"cW c #a25752",
"bP c #a25852",
"b5 c #a25853",
"b6 c #a25953",
"fY c #a25954",
"cb c #a25a54",
"cE c #a35752",
"cD c #a35853",
"ba c #a35c55",
"cQ c #a45b54",
"bZ c #a55d56",
"ao c #a85f56",
"Qt.#.a.b.c.d.e.f.g.g.h.i.i.j.k.k.l.m.m.n.j.o.p.q.r.s.t.u.v.w.x.y.y.x.w.v.u.t.s.r.q.p.o.j.n.m.m.l.k.k.j.i.i.h.g.g.f.e.d.c.b.a.#Qt",
".z.A.B.B.C.D.#.E.F.m.G.o.o.o.H.I.J.j.K.L.M.M.N.p.h.O.P.s.E.E.Q.R.R.Q.E.E.s.P.O.S.p.N.M.M.L.K.j.J.I.H.o.o.o.G.m.F.E.#.D.C.B.B.A.z",
".T.U.V.C.C.W.f.g.X.Y.Z.K.Z.h.0.p.1.2.3.4.4.K.5.6.P.7.8.9#..P###a#a##.P#..9.8.7.P.6.5.K.4.4.3.2.1.p.0.h.Z.K.Z.Y.X.w.f.W.C.C.V.U.T",
".D.U.B#b#c#d#e#f.G#g.m.7.Y#h.u.g.L#i.2.M#j.q#i#k#k.i.8.P.Q.O#l#m#m#l.O.Q.P.8.i#k#k#i.q#j.M.2#i.L.g.u#h.Y.7.m#g.G#f#e#d#c#b.B.U.D",
"#n.C.C#b#o#p#q#r#s#h.l.k.Z.7.Y.7#t#j.2.2.3#u.2.i.i.Y.Q.0.p.p.7.p.p.7.p.p.0.Q.Y.i.i.2#u.3.2.2#j#t.7.Y.7.Z.k.l#h#s#r#q#p#o#b.C.C#n",
"#v#w.B.C.d#x.e#y##.g.l#z.S.k.l.6#A#j.2.2.2.M#B#C#C#C#C.p#z.K.0.p.p.0.K#z.p#C#C#C#C#B.M.2.2.2#j#A.6.l.k.S#z.l#l###y.e#x.d.C.B#w#v",
"#D.U.U#w#E.##p#F##.w.l.k.m.L#z#G.O#i.2.2.2#H.4.M.4.4.3.j.j.4#z.7.7#z.4.j.j.3.4.4.M.4#H.2.2.2#i.O#G#z.L.m.k.l.w###F#p.##E#w.U.U#D",
".e#I#J#K#L#J.z#M#N#m#h#h.O.i.L.j.i#O#P.M.5#i.M.3.4#Q#Q.3.3.M#R.H.H#R.M.3.3#Q#Q.4.3.M#i.5.M#P#O.i.j.L.i.O#h#h#m#N#M.z#J#L#K#J#I.e",
"#y#S#T#U.A#V#W#X.7#Y.G.r.k.l.Y.S.k.n#Z.S.7.l.3.3.3#B#0.4.3#k.5.i.i.5#k.3.4#0#B.3.3.3.l.7.S#Z.n.k.S.Y.l.k.r.G#Y.7#X#W#V.d#U#T#S#y",
"#1#2#3#L#4#5#6#7#y#8.0#l.R.l#t.H.Z.k.P.S.7.0.K.I.3.N.1.N.M.N#u.3.3#u.N.M.N.1.N.3.I.K.0.7.S.P.k.Z.H#t.l.R#l.0#8#y#7#6#5#4#L#3#2#1",
"#9a.a#aaabacadaeafagahai.e.Q.7.u.k.L.5.Y.s#t.o.2.3ajak.3.N#z.M.4.4.M#z.N.3akaj.3.2.o#t.s.Y.5.L.k.u.7.Q.eaiahagafaeadacabaaa#a.#9",
"a.#9#9alamanaoapaqarasat#4#Z.n.n.s.H.h.l.5.L.2#A.1.4ak.4.3.Lau.H.Hau.L.3.4ak.4.1#A.2.L.5.l.h.H.s.n.n#Z#4atasaraqapaoanamal#9#9a.",
"#9#9#9avawaxayayazaAaBaCaD#1#4.P.Q.u.p#R.HaE#t.8.i.4.4.4.4.I.1.0.0.1.I.4.4.4.4.i.8#taE.H#R.p.u.Q.P#4#1aDaCaBaAazayayaxawav#9#9#9",
"aFaG#9#9aHaIaJaKaLaMaNaO.CaP.DaQ#Z##.7.Y.h#z#z.S#z.5#C#BaR.N.3.J.J.3.NaR#B#C.5#z.S#z#z.h.Y.7###ZaQ.DaP.CaOaNaMaLaKaJaIaH#9#9aGaF",
"aSaTaUaUaUaVaWaXaYaZa0a1a2.aa3.E.g.E#Z.w#l.K.H.s.H.r.i#iaR.J#G.H.H#G.JaR#i.i.r.H.s.H.K#l.w#Z.E.g.Ea3.aa2a1a0aZaYaXaWaVaUaUaUaTaS",
"a4a5a6a7a7a8a9aXb.b#babb#Ubcbdbe.9.Ebfbg#..Q#t.w.H.L.j.5.j.k.S.r.r.S.k.j.5.j.L.H.w#t.Q#.bgbf.E.9bebdbc#Ubbbab#b.aXa9a8a7a7a6a5a4",
"bhbibj#.#lbkblbmbnboaJbpbq.abrbs.W.9#ybtbubvbw.S.r.K.5.J#z.H.Q.P.P.Q.H#z.J.5.K.r.Sbwbvbubt#y.9.Wbsbr.abqbxaJbobnbmblbk#l#.bjbibh",
"bybibibz.QbAbBbCbDbEbFbGbHbIbJ.#bK#UbLaH#SbMbg.w.P.Q.S.0.O.g.ubNbN.u.g.O.0.S.Q.P.wbgbM#SaHbL#UbK.#bJbIbHbGbFbEbDbCbBbA.Qbzbibiby",
"bObPbQbR.ubSbTbBbUbVbWbXbYbZb0b1bM.gb2.Wb3.D.g#N.Q.g#m.g.F#9.O#l#l.O#9.F.g#m.g.Q#N.g.Db3.Wb2.gbMb1b0bZbYbXbWbVbUbBbTbS.ubRbQbPbO",
"b4b5b6b7#eb8bAbmb9c.c#cacbaJcccdcecfcgav.RchaD.E.Rci.wcj.9btci#9#9cibt.9cj.wci.R.EaDch.RavcgckcecdccaJcbcac#c.b9bmbAb8#eb7b6b5b4",
"bPb5b5cl.Ecmcncocpc.cqcrcsctcucvcwcxcyavav#.cza7awcAcBal.R.9#ya7a7#y.9.RalcBcAawa7cz#.avavcycxcwcvcuctcscrcCc.cpcocncm.Eclb5b5bP",
"cDb5cEcFcGa5cHcIcJcKcLcMcNcDcOcPcQcRcyavcSavcScS#9cTavcSbv#Sa7cicia7#SbvcSavcT#9cScSavcSavcycRcQcPcOcDcNcMcLcKcJcIcHa5cGcFcEb5cD",
"b5b5bPcUcVcWcXcYcZcLc0cIcXbPc1cPc2c3c4cSavcSc5cScS#3al#S#S.F.F.F.F.F.F#S#Sal#3cScSc5cSavcSc4c3c6cPc1bPcXcIc0cLcZcYcXcWcVcUbPb5b5",
"bPcWbQc7c7cXcXc8c9d.d#dac7cXdbdcdddec4cScScScS#9cScS#9#9#9#9#9#9#9#9#9#9#9#9cScS#9cScScScSc4dedddcdbcXc7dad#d.c9c8cXcXc7c7bQcWbP",
"cWcXdfcWcWcWc7dgdhdidjdkdlcmdmdndodpdqcSc5#9#9#9cScS#9#9#9#9#9#9#9#9#9#9#9#9cScS#9#9#9c5cSdqdrdodndmcmdldkdjdidhdgc7cWcWcWdfcXcW",
"dsdtduc7c7c7c7dvdwdxdydzdAdBdCdDdEdFc4#9#9#9c5c5dGdH#9#9dIdJ#9#9#9#9dJdI#9#9dHdGc5c5#9#9#9c4dpdEdDdCdBdAdzdydKdwdvc7c7c7c7dudtds",
"dLdMdNdOdPdQdRdSdTdUdkdVdWdXdYdZd0d1d2#9#9a.#9#9d3d4#9#9d5d6.Ea7a7.Ed6d5#9#9d4d3#9#9a.#9#9d2d1d0dZdYdXdWdVdkdUdTdSdRdQdPdOdNdMdL",
"d7d8d9e.e#eaebecedeeefegeheiejekelblcu#9#9#9#9emeneo#9ciepeq.wcici.weqepci#9eoenem#9#9#9#9cublelerejeiehegefeeesecebeae#e.d9d8d7",
"c6etc6euevewexeyesezeAeBeCeDeEeFeGeGeH#reIeJ#9eKeLeMcicieNdReO.w.weOdRePcicieMeLeQ#9eJeI#reHeGeGeFeEeDeCeBeAezeseyexeweveuc6etc6",
"eReSeTeUeVeWeXeYeZe0dte1e2e2e3e4e5eGe6e7e8e9a7eKbjf.a7a7eNbjcGbtbtcGbjeNa7a7f.bjeKa7e9e8e7e6eGe5e4e3e2e2e1dte0eZf#eXeWeVeUeTeSeR",
"fafbfcfdfefdfffgfhfieAfjfkflfmfnfofpfqfrfsft.FfufvfweQ.FbWbjfx#l#lfxbjbW.FeQfwfvfu.FftfsfrfqfpfofnfmflfkfjeAfifhfgfffdfefdfcfbfa",
"fyfzfAfyfBfCfDfE#tfFfGfHcXfIfrfJfKfLd#fMfNfOfPfQfReDfS.xfTfUfV.E.EfVfUfT.xfSeDfRfQfPfOfNfMd#fLfKfJfrfIcXfHfGfF#tfEfDfCfBfyfAfzfy",
"fyfzfAfyfBfCfDfE#tfFfGfHcXfIfrfJfKfLd#fMfNfOfPfQfReDfS.xfTfUfV.E.EfVfUfT.xfSeDfRfQfPfOfNfMd#fLfKfJfrfIcXfHfGfF#tfEfDfCfBfyfAfzfy",
"fafbfcfdfefdfffgfhfieAfjfkflfmfnfofpfqfrfsft.FfufvfweQ.FbWbjfx#l#lfxbjbW.FeQfwfvfu.FftfsfrfqfpfofnfmflfkfjeAfifhfgfffdfefdfcfbfa",
"eReSeTeUeVeWeXeYeZe0dte1e2e2e3e4e5eGe6e7e8e9a7eKbjf.a7a7eNbjcGbtbtcGbjeNa7a7f.bjeKa7e9e8e7e6eGe5e4e3e2e2e1dte0eZf#eXeWeVeUeTeSeR",
"c6etc6euevewexeyesezeAeBeCeDeEeFeGeGeH#reIeJ#9eKeLeMcicieNdReO.w.weOdRePcicieMeLeQ#9eJeI#reHeGeGeFeEeDeCeBeAezeseyexeweveuc6etc6",
"d7d8d9e.e#eaebecedeeefegeheiejekelblcu#9#9#9#9emeneo#9ciepeq.wcici.weqepci#9eoenem#9#9#9#9cublelerejeiehegefeeesecebeae#e.d9d8d7",
"dLdMdNdOdPdQdRdSdTdUdkdVdWdXdYdZd0d1d2#9#9a.#9#9d3d4#9#9d5d6.Ea7a7.Ed6d5#9#9d4d3#9#9a.#9#9d2d1d0dZdYdXdWdVdkdUdTdSdRdQdPdOdNdMdL",
"dsdtduc7c7c7c7dvdwdxdydzdAdBdCdDdEdFc4#9#9#9c5c5dGdH#9#9dIdJ#9#9#9#9dJdI#9#9dHdGc5c5#9#9#9c4dpdEdDdCdBdAdzdydKdwdvc7c7c7c7dudtds",
"cWcXdfcWcWcWc7dgdhdidjdkdlcmdmdndodpdqcSc5#9#9#9cScS#9#9#9#9#9#9#9#9#9#9#9#9cScS#9#9#9c5cSdqdrdodndmcmdldkdjdidhdgc7cWcWcWdfcXcW",
"bPcWbQc7c7cXcXc8c9d.d#dac7cXdbdcdddec4cScScScS#9cScS#9#9#9#9#9#9#9#9#9#9#9#9cScS#9cScScScSc4dedddcdbcXc7dad#d.c9c8cXcXc7c7bQcWbP",
"b5b5bPf#cVcWcXcYcZcLc0cIcXbPc1cPc6c3c4cSavcSc5cScS#3al#S#S.F.F.F.F.F.F#S#Sal#3cScSc5cSavcSc4c3c6cPc1bPcXcIc0cLcZcYcXcWfWcUbPb5b5",
"cDb5cEcFcGa5cHcIcJcKcLcMcNcDcOcPcQcRcyavcSavcScS#9cTavcSbv#Sa7cicia7#SbvcSavcT#9cScSavcSavcycRcQcPcOcDcNcMcLfXcJcIcHa5cGcFcEb5cD",
"bPb5b5cl.Ecmcncocpc.cCcrcsctcucvcwcxcyavav#.cza7awcAcBal.R.9#ya7a7#y.9.RalcBcAawa7cz#.avavcycxcwcvcuctcscrcCc.cpcocncm.Eclb5b5bP",
"b4b5b6b7#eb8bAbmb9c.c#cafYaJcccdceckcgav.RchaD.E.Rci.wcj.9btci#9#9cibt.9cj.wci.R.EaDch.RavcgckcecdccaJfYcac#c.b9bmbAb8#eb7b6b5b4",
"bObPbQbR.ubSbTbBbUbVbWbXbYbZb0fZbM.gb2.Wb3.D.g#N.Q.g#m.g.F#9.O#l#l.O#9.F.g#m.g.Q#N.g.Db3.Wb2.gbMfZb0bZbYbXbWbVbUbBbTbS.ubRbQbPbO",
"bybibibz.QbAbBbCbDbEbFbGbHbIbJ.#bK#UbLaH#SbMbg.w.P.Q.S.0.O.g.ubNbN.u.g.O.0.S.Q.P.wbgbM#SaHbL#UbK.#bJbIbHbGbFbEbDbCbBbA.Qbzbibiby",
"bhbibj#.#lbkblbmbnboaJbpbq.abrbs.W.9#ybtbubvbw.S.r.K.5.J#z.H.Q.P.P.Q.H#z.J.5.K.r.Sbwbvbubt#y.9.Wbsbr.abqbxaJbobnbmblbk#l#.bjbibh",
"a4a5a6a7a7a8a9aXb.b#babb#Ubcbdbe.9.Ebfbg#..Q#t.w.H.L.j.5.j.k.S.r.r.S.k.j.5.j.L.H.w#t.Q#.bgbf.E.9bebdbc#Ubbbab#b.aXa9a8a7a7a6a5a4",
"aSaTaUaUaUaVaWaXaYaZa0a1a2.aa3.E.g.E#Z.w#l.K.H.s.H.r.i#iaR.J#G.H.H#G.JaR#i.i.r.H.s.H.K#l.w#Z.E.g.Ea3.aa2a1a0aZaYaXaWaVaUaUaUaTaS",
"aFaG#9#9aHaIaJaKaLaMaNaO.CaP.DaQ#Z##.7.Y.h#z#z.S#z.5#C#BaR.N.3.J.J.3.NaR#B#C.5#z.S#z#z.h.Y.7###ZaQ.DaP.CaOaNaMaLaKaJaIaH#9#9aGaF",
"#9#9#9avawaxayayazaAaBaCaD#1#4.P.Q.u.p#R.HaE#t.8.i.4.4.4.4.I.1.0.0.1.I.4.4.4.4.i.8#taE.H#R.p.u.Q.P#4#1aDaCaBaAazayayaxawav#9#9#9",
"a.#9#9alamanaoapaqarasat#4#Z.n.n.s.H.h.l.5.L.2#A.1.4ak.4.3.Lau.H.Hau.L.3.4ak.4.1#A.2.L.5.l.h.H.s.n.n#Z#4atasaraqapaoanamal#9#9a.",
"#9a.a#aaabacadaeafagahai.e.Q.7.u.k.L.5.Y.0#t.o.2.3ajak.3.N#z.M.4.4.M#z.N.3akaj.3.2.o#t.0.Y.5.L.k.u.7.Q.eaiahagafaeadacabaaa#a.#9",
"#1#2#3#L#4#5#6#7#y#8.0#l.R.l#t.H.Z.k.P.S.7.0.K.I.3.N.1.N.M.N#u.3.3#u.N.M.N.1.N.3.I.K.0.7.S.P.k.Z.H#t.l.R#l.0#8#y#7#6#5#4#L#3#2#1",
"#y#S#T#U.A#V#W#X.7#Y.G.r.k.l.Y.S.k.n#Z.S.7.l.3.3.3#B#0.4.3#k.5.i.i.5#k.3.4#0#B.3.3.3.l.7.S#Z.n.k.S.Y.l.k.r.G#Y.7#X#W#V.d#U#T#S#y",
".e#I#J#K#L#J.z#M#N#m#h#h.O.i.L.j.i#O#P.M.5#i.M.3.4#Q#Q.3.3.M#R.H.H#R.M.3.3#Q#Q.4.3.M#i.5.M#P#O.i.j.L.i.O#h#h#m#N#M.z#J#L#K#J#I.e",
"#D.U.U#w#E.##p#F##.w.l.k.m.L#z#G.O#i.2.2.2#H.4.M.4.4.3.j.j.4#z.7.7#z.4.j.j.3.4.4.M.4#H.2.2.2#i.O#G#z.L.m.k.l.w###F#p.##E#w.U.U#D",
"#v#w.B.C.d#x.e#y###l.l#z.S.k.l.6#A#j.2.2.2.M#B#C#C#C#C.p#z.K.0.p.p.0.K#z.p#C#C#C#C#B.M.2.2.2#j#A.6.l.k.S#z.l#l###y.e#x.d.C.B#w#v",
"#n.C.C#b#o#p#q#r#s#h.l.k.Z.7.Y.7#t#j.2.2.3#u.2.i.i.Y.Q.0.p.p.7.p.p.7.p.p.0.Q.Y.i.i.2#u.3.2.2#j#t.7.Y.7.Z.k.l#h#s#r#q#p#o#b.C.C#n",
".D.U.B#b#c#d#e#f.G#g.m.7.Y#h.u.g.L#i.2.M#j.q#i#k#k.i.8.P.Q.O#l#m#m#l.O.Q.P.8.i#k#k#i.q#j.M.2#i.L.g.u#h.Y.7.m#g.G#f#e#d#c#b.B.U.D",
".T.U.V.C.C.W.f.g.X.Y.Z.K.Z.h.0.p.1.2.3.4.4.K.5.6.P.7.8.9#..P###a#a##.P#..9.8.7.P.6.5.K.4.4.3.2.1.p.0.h.Z.K.Z.Y.X.w.f.W.C.C.V.U.T",
".z.A.B.B.C.D.#.E.F.m.G.o.o.o.H.I.J.j.K.L.M.M.N.p.h.O.P.s.E.E.Q.R.R.Q.E.E.s.P.O.S.p.N.M.M.L.K.j.J.I.H.o.o.o.G.m.F.E.#.D.C.B.B.A.z",
"Qt.#.a.b.c.d.e.f.g.g.h.i.i.j.k.k.l.m.m.n.j.o.p.q.r.s.t.u.v.w.x.y.y.x.w.v.u.t.s.r.q.p.o.j.n.m.m.l.k.k.j.i.i.h.g.g.f.e.d.c.b.a.#Qt"};
